<?xml version="1.0" standalone="no"?><svg xmlns="http://www.w3.org/2000/svg" viewBox="0 0 1440 320"><path fill="#FFFFFF" fill-opacity="1" d="M0,32L18.5,42.7C36.9,53,74,75,111,74.7C147.7,75,185,53,222,58.7C258.5,64,295,96,332,122.7C369.2,149,406,171,443,186.7C480,203,517,213,554,192C590.8,171,628,117,665,112C701.5,107,738,149,775,170.7C812.3,192,849,192,886,181.3C923.1,171,960,149,997,128C1033.8,107,1071,85,1108,85.3C1144.6,85,1182,107,1218,112C1255.4,117,1292,107,1329,90.7C1366.2,75,1403,53,1422,42.7L1440,32L1440,320L1421.5,320C1403.1,320,1366,320,1329,320C1292.3,320,1255,320,1218,320C1181.5,320,1145,320,1108,320C1070.8,320,1034,320,997,320C960,320,923,320,886,320C849.2,320,812,320,775,320C738.5,320,702,320,665,320C627.7,320,591,320,554,320C516.9,320,480,320,443,320C406.2,320,369,320,332,320C295.4,320,258,320,222,320C184.6,320,148,320,111,320C73.8,320,37,320,18,320L0,320Z"></path></svg>